<?xml version="1.0" standalone="no"?><!DOCTYPE svg PUBLIC "-//W3C//DTD SVG 1.1//EN" "http://www.w3.org/Graphics/SVG/1.1/DTD/svg11.dtd"><svg t="1632879557114" class="icon" viewBox="0 0 1024 1024" version="1.1" xmlns="http://www.w3.org/2000/svg" p-id="57478" xmlns:xlink="http://www.w3.org/1999/xlink" width="200" height="200"><defs><style type="text/css"></style></defs><path d="M928.58 907.179H65.007V147.712c0-17.067 13.653-30.72 30.72-30.72s30.72 13.653 30.72 30.72v698.027h803.84c17.067 0 30.72 13.653 30.72 30.72s-15.36 30.72-32.427 30.72z" fill="#8a8a8a" p-id="57479"></path><path d="M148.634 606.805H314.18V809.9H148.634z m286.72-303.786l194.56 151.893 187.733-175.787v83.627h59.733V185.259H684.527v59.733h81.92L621.38 383.232 435.354 238.165l-232.107 153.6 23.893 54.614zM539.46 606.805h165.547V809.9H539.46zM339.78 470.272h165.547v339.627H339.78z m401.067-15.36h165.547v353.28H740.847z" fill="#8a8a8a" p-id="57480"></path></svg>