<?xml version="1.0" standalone="no"?><!DOCTYPE svg PUBLIC "-//W3C//DTD SVG 1.1//EN" "http://www.w3.org/Graphics/SVG/1.1/DTD/svg11.dtd"><svg t="1632884573610" class="icon" viewBox="0 0 1024 1024" version="1.1" xmlns="http://www.w3.org/2000/svg" p-id="128022" xmlns:xlink="http://www.w3.org/1999/xlink" width="200" height="200"><defs><style type="text/css"></style></defs><path d="M816.971294 605.244235l123.542588 65.596236a34.454588 34.454588 0 0 1 14.396236 46.381176 33.490824 33.490824 0 0 1-14.456471 14.155294l-413.696 221.424941a35.538824 35.538824 0 0 1-32.527059 0l-413.635764-221.485176a34.575059 34.575059 0 0 1-14.456471-46.561882 35.538824 35.538824 0 0 1 14.456471-13.914353l123.301647-65.596236-123.301647-66.258823a34.996706 34.996706 0 0 1-14.456471-46.863059 38.550588 38.550588 0 0 1 14.456471-13.613177l123.301647-65.837176-123.301647-66.258824a34.032941 34.032941 0 0 1-14.456471-45.839058 35.177412 35.177412 0 0 1 14.456471-14.396236l413.635764-221.665882a34.755765 34.755765 0 0 1 32.527059 0l413.696 221.665882a34.575059 34.575059 0 0 1 14.456471 46.320942 37.526588 37.526588 0 0 1-14.456471 13.914352l-123.542588 66.258824 123.542588 65.837176a34.575059 34.575059 0 0 1 14.456471 46.381177 38.309647 38.309647 0 0 1-14.456471 14.155294l-123.542588 66.258824zM510.192941 691.139765q170.646588-91.136 341.293177-182.693647l-107.158589-57.283765-217.750588 116.374588a29.093647 29.093647 0 0 1-11.023059 3.915294h-0.722823l-3.192471 0.481883h-2.710588l-2.891294-0.481883h-1.024a31.021176 31.021176 0 0 1-11.023059-3.915294L276.299294 451.162353l-107.158588 57.283765c113.483294 61.199059 227.749647 121.916235 340.992 182.693647z" p-id="128023"></path></svg>