<?xml version="1.0" standalone="no"?><!DOCTYPE svg PUBLIC "-//W3C//DTD SVG 1.1//EN" "http://www.w3.org/Graphics/SVG/1.1/DTD/svg11.dtd"><svg t="1632880191711" class="icon" viewBox="0 0 1024 1024" version="1.1" xmlns="http://www.w3.org/2000/svg" p-id="95012" xmlns:xlink="http://www.w3.org/1999/xlink" width="200" height="200"><defs><style type="text/css"></style></defs><path d="M748.551 367.135V142.664c0-10.599-12.011-22.436-22.449-22.436H116.473c-10.433 0-18.884 8.571-18.884 19.156v747.308c0 10.576 8.451 19.169 18.884 19.169h585.081v-0.055h113.284v-1.513c4.937 0.681 9.822 1.513 14.952 1.513 54.321 0 98.338-44.697 98.338-99.837V367.232l-179.577-0.097zM220.682 625.933h-51.199v-51.199h51.199v51.199z m0-204.801h-51.199v-51.199h51.199v51.199z m435.204 203.266H297.483c-14.137 0-25.597-11.461-25.597-25.602 0-14.137 11.46-25.597 25.597-25.597h358.403c14.136 0 25.597 11.46 25.597 25.597 0 14.141-11.461 25.602-25.597 25.602z m0-204.801H297.483c-14.137 0-25.597-11.461-25.597-25.602 0-14.136 11.46-25.597 25.597-25.597h358.403c14.136 0 25.597 11.461 25.597 25.597 0 14.141-11.461 25.602-25.597 25.602z m227.346 374.029c0 36.366-31.522 67.341-67.341 67.341-37.176 0-67.341-29.58-67.341-67.341v-381.61h134.681v381.61z" fill="" p-id="95013"></path></svg>