<?xml version="1.0" standalone="no"?><!DOCTYPE svg PUBLIC "-//W3C//DTD SVG 1.1//EN" "http://www.w3.org/Graphics/SVG/1.1/DTD/svg11.dtd"><svg t="1632879805697" class="icon" viewBox="0 0 1024 1024" version="1.1" xmlns="http://www.w3.org/2000/svg" p-id="67885" xmlns:xlink="http://www.w3.org/1999/xlink" width="200" height="200"><defs><style type="text/css"></style></defs><path d="M795.2 194.5c1.5-37.5-29.3-68.4-66.9-66.9l-179.9 7.2c-12.8-2.2-25.8 2-35 11.1L165.9 493.4c-36.8 36.8-36.8 96.5 0 133.3l130.2 130.2c36.8 36.8 96.5 36.8 133.3 0l347.4-347.4c9.2-9.2 13.3-22.2 11.1-35l7.3-180z m-64.3 82.3c-24.7 40.4-82 40.4-106.7 0-11.6-19-11.6-44.1 0-63.1 24.7-40.4 82-40.4 106.7 0 11.6 19 11.6 44.1 0 63.1z" p-id="67886"></path><path d="M430.6 827.1l375.3-380.9c12.7-12.9 20.1-30 20.7-48.1l6.3-169.8 45.2 102.4c7.6 10.5 9.6 24.1 5.4 36.3L724.4 831.9c-16.8 49.2-70.4 75.5-119.7 58.7L430.5 831" p-id="67887"></path></svg>