<?xml version="1.0" standalone="no"?><!DOCTYPE svg PUBLIC "-//W3C//DTD SVG 1.1//EN" "http://www.w3.org/Graphics/SVG/1.1/DTD/svg11.dtd"><svg t="1632884535145" class="icon" viewBox="0 0 1024 1024" version="1.1" xmlns="http://www.w3.org/2000/svg" p-id="127859" xmlns:xlink="http://www.w3.org/1999/xlink" width="200" height="200"><defs><style type="text/css"></style></defs><path d="M815.640576 49.152H120.983552c-34.054144 0-61.669376 25.993216-61.669376 58.052608v809.586688c0 32.063488 27.611136 58.056704 61.669376 58.056704h602.95168c-6.508544-5.726208-11.657216-13.312-15.265792-22.724608-2.818048-7.376896-4.73088-14.76608-6.578176-21.917696-0.425984-1.650688-0.851968-3.301376-1.286144-4.943872-1.76128 1.363968-3.649536 2.760704-5.709824 4.21888-14.09024 9.916416-28.196864 14.934016-41.955328 14.934016-25.698304 0-48.254976-16.77312-67.026944-49.856512-5.373952-9.474048-9.412608-25.305088 1.798144-46.997504 3.29728-6.406144 6.92224-12.550144 10.436608-18.497536l0.950272-1.61792c-4.124672-0.770048-8.66304-1.736704-13.279232-3.731456-8.380416-3.62496-19.247104-8.704-28.913664-15.863808-13.029376-9.641984-19.116032-23.683072-17.14176-39.542784 0.413696-3.252224 0.28672-7.057408 0.16384-11.07968a208.048128 208.048128 0 0 1-0.135168-6.578176c0-30.43328 17.006592-52.482048 46.661632-60.502016 4.059136-1.097728 7.970816-1.8432 11.759616-2.572288 0.503808-0.090112 1.00352-0.192512 1.507328-0.282624l-1.6384-2.797568c-3.72736-6.340608-7.581696-12.894208-11.026432-19.80416-10.293248-20.566016-7.606272-41.660416 7.553024-59.387904l1.118208-1.335296c0.684032-0.8192 1.368064-1.6384 2.076672-2.441216 14.72512-16.707584 31.473664-32.223232 53.829632-32.223232 13.402112 0 27.50464 5.3248 47.14496 17.805312 0.733184 0.462848 1.39264 0.864256 1.974272 1.204224 0.229376-0.729088 0.466944-1.572864 0.724992-2.551808l1.236992-4.796416c1.732608-6.811648 3.52256-13.852672 6.189056-20.905984 7.192576-19.202048 21.798912-30.826496 41.115648-32.70656 7.081984-0.688128 15.466496-1.384448 24.068096-1.384448 5.136384 0 9.846784 0.241664 14.393344 0.745472 23.63392 2.576384 40.583168 16.97792 47.734784 40.538112 1.953792 6.438912 3.411968 12.853248 4.829184 19.058688l0.221184 0.966656c1.867776-1.110016 3.739648-2.2528 5.660672-3.424256 4.636672-2.834432 9.428992-5.767168 14.524416-8.454144a56.95488 56.95488 0 0 1 15.671296-5.632V107.204608C877.314048 75.14112 849.69472 49.152 815.640576 49.152z m-336.101376 742.4H299.995136c-10.227712 12.65664-25.853952 20.762624-43.388928 20.762624s-33.165312-8.105984-43.388928-20.762624h-10.407936c-20.865024 0-37.777408-15.683584-37.777408-35.024896 0-19.345408 16.912384-35.0208 37.777408-35.0208h10.407936c10.227712-12.652544 25.853952-20.758528 43.388928-20.758528s33.161216 8.105984 43.388928 20.758528h179.544064c20.865024 0 37.781504 15.675392 37.781504 35.0208 0 19.341312-16.920576 35.024896-37.781504 35.024896z m58.023936-265.576448h-25.858048c-10.227712 12.65664-25.853952 20.762624-43.388928 20.762624s-33.165312-8.105984-43.388928-20.762624H209.77664c-24.711168 0-44.7488-15.679488-44.7488-35.016704 0-19.341312 20.037632-35.0208 44.7488-35.0208h215.1424c10.227712-12.65664 25.853952-20.762624 43.393024-20.762624s33.165312 8.105984 43.393024 20.762624h25.858048c24.711168 0 44.752896 15.683584 44.752896 35.0208s-20.041728 35.016704-44.752896 35.016704z m202.838016-262.504448H299.327488c-10.235904 12.1856-25.567232 19.94752-42.725376 19.94752s-32.489472-7.76192-42.725376-19.94752h-10.067968c-24.293376 0-43.986944-16.044032-43.986944-35.835904 0-19.791872 19.693568-35.835904 43.986944-35.835904h10.067968c10.231808-12.189696 25.567232-19.94752 42.725376-19.94752s32.493568 7.76192 42.725376 19.94752h441.073664c24.285184 0 43.982848 16.044032 43.982848 35.835904 0 19.791872-19.70176 35.835904-43.982848 35.835904z" p-id="127860"></path><path d="M256.602112 227.6352m-27.451392 0a27.451392 27.451392 0 1 0 54.902784 0 27.451392 27.451392 0 1 0-54.902784 0Z" p-id="127861"></path><path d="M468.312064 490.954752m-27.451392 0a27.451392 27.451392 0 1 0 54.902784 0 27.451392 27.451392 0 1 0-54.902784 0Z" p-id="127862"></path><path d="M955.510784 721.022976c-10.289152-10.42432-23.465984-13.47584-37.339136-15.159296-9.822208-1.191936-13.369344-8.671232-8.491008-17.027072 1.007616-1.7408 2.019328-3.469312 3.080192-5.152768 21.31968-33.9968 19.595264-47.550464-13.70112-75.886592-0.65536-0.540672-1.35168-1.060864-2.02752-1.589248-11.943936-9.515008-24.854528-11.12064-38.37952-3.948544-8.073216 4.25984-15.630336 9.474048-23.646208 13.856768-6.795264 3.710976-12.279808 0.954368-14.082048-6.520832-1.86368-7.766016-3.428352-15.64672-5.746688-23.281664-4.77184-15.753216-15.601664-25.509888-31.834112-27.275264-10.678272-1.171456-21.7088-0.434176-32.448512 0.598016-12.849152 1.257472-21.430272 9.097216-25.878528 20.95104-2.715648 7.18848-4.419584 14.761984-6.377472 22.224896-4.222976 16.101376-9.998336 18.468864-23.87968 9.637888-33.538048-21.307392-48.25088-19.202048-74.604544 10.71104-0.946176 1.06496-1.830912 2.183168-2.760704 3.268608-10.190848 11.907072-12.005376 25.075712-5.029888 39.018496 4.32128 8.66304 9.519104 16.908288 14.323712 25.346048 4.345856 7.634944 2.33472 12.36992-6.320128 14.422016-5.820416 1.39264-11.804672 2.179072-17.575936 3.743744-21.262336 5.742592-32.39936 20.29568-32.39936 41.906176 0 6.004736 0.602112 12.087296-0.139264 18.00192-1.236992 9.949184 2.801664 17.768448 10.11712 23.18336 7.200768 5.328896 15.511552 9.392128 23.781376 12.959744 5.414912 2.347008 11.6736 2.646016 17.473536 4.194304 7.303168 1.949696 8.986624 6.254592 5.271552 12.77952-4.677632 8.192-9.715712 16.1792-14.020608 24.543232-4.907008 9.506816-7.344128 20.115456-1.92512 29.67552 18.120704 31.920128 44.126208 52.5312 79.654912 27.533312a118.734848 118.734848 0 0 0 6.832128-5.18144c7.745536-6.336512 16.879616-3.444736 19.550208 6.189056 2.453504 8.810496 4.354048 17.842176 7.606272 26.33728 6.127616 15.990784 17.936384 23.53152 34.988032 23.53152 5.71392 0.012288 11.42784 0.012288 17.137664 0.012288 19.689472-0.012288 33.746944-10.305536 39.170048-29.237248 2.023424-7.122944 3.137536-14.495744 4.677632-21.757952 1.4336-6.782976 8.216576-9.961472 14.114816-6.483968 3.694592 2.174976 7.20896 4.64896 10.83392 6.92224 26.611712 16.642048 41.627648 14.942208 63.844352-7.233536 1.798144-1.814528 3.633152-3.657728 5.332992-5.578752 13.922304-15.720448 15.675392-28.3648 6.139904-47.050752-3.760128-7.3728-8.388608-14.299136-12.201984-21.651456-3.50208-6.795264-1.65888-10.739712 5.69344-12.857344 5.197824-1.499136 10.530816-2.596864 15.785984-3.960832 26.861568-6.92224 36.646912-19.484672 36.646912-46.944256 0-22.704128-1.634304-28.03712-11.247616-37.769216z m-186.970112 104.624128c-37.404672-0.049152-68.841472-31.506432-68.902912-68.9152-0.065536-37.654528 30.9248-68.345856 69.033984-68.386816 37.916672-0.04096 69.087232 30.932992 68.911104 68.493312-0.176128 37.425152-31.707136 68.870144-69.042176 68.808704z" p-id="127863"></path><path d="M256.602112 756.527104m-27.451392 0a27.451392 27.451392 0 1 0 54.902784 0 27.451392 27.451392 0 1 0-54.902784 0Z" p-id="127864"></path></svg>