<?xml version="1.0" standalone="no"?><!DOCTYPE svg PUBLIC "-//W3C//DTD SVG 1.1//EN" "http://www.w3.org/Graphics/SVG/1.1/DTD/svg11.dtd"><svg t="1632880418985" class="icon" viewBox="0 0 1024 1024" version="1.1" xmlns="http://www.w3.org/2000/svg" p-id="108869" xmlns:xlink="http://www.w3.org/1999/xlink" width="200" height="200"><defs><style type="text/css"></style></defs><path d="M341.333333 170.666667V42.666667L128 256h128a85.333333 85.333333 0 0 0 85.333333-85.333333z m426.666667-128h-341.333333v128a170.666667 170.666667 0 0 1-170.666667 170.666666H128v512a128 128 0 0 0 128 128h512a128 128 0 0 0 128-128V170.666667a128 128 0 0 0-128-128z m30.72 414.293333l-256 256a42.666667 42.666667 0 0 1-53.76 5.546667l-99.84-66.56-103.253333 102.826666A42.666667 42.666667 0 0 1 256 768a42.666667 42.666667 0 0 1-30.293333-12.8 42.666667 42.666667 0 0 1 0-60.16l128-128a42.666667 42.666667 0 0 1 53.76-5.546667l98.986666 65.706667 231.68-230.826667a42.666667 42.666667 0 0 1 60.586667 60.586667z" p-id="108870"></path></svg>