<?xml version="1.0" standalone="no"?><!DOCTYPE svg PUBLIC "-//W3C//DTD SVG 1.1//EN" "http://www.w3.org/Graphics/SVG/1.1/DTD/svg11.dtd"><svg t="1632880454474" class="icon" viewBox="0 0 1024 1024" version="1.1" xmlns="http://www.w3.org/2000/svg" p-id="111091" xmlns:xlink="http://www.w3.org/1999/xlink" width="200" height="200"><defs><style type="text/css"></style></defs><path d="M752.256 128h-337.28A223.616 223.616 0 0 0 192 350.976v399.168c0 51.136 41.792 92.928 92.928 92.928h338.304a222.528 222.528 0 0 0 221.888-221.888V220.928c0-51.136-41.792-92.928-92.864-92.928z m-207.296 515.328H351.36a24.32 24.32 0 1 1 0-48.704h193.6a24.32 24.32 0 1 1 0 48.704z m129.088-136.064H351.36a24.32 24.32 0 1 1 0-48.704h322.688a24.32 24.32 0 1 1 0 48.704z m0-136H351.36a24.32 24.32 0 1 1 0-48.704h322.688a24.32 24.32 0 1 1 0 48.64z" p-id="111092"></path></svg>