<?xml version="1.0" standalone="no"?><!DOCTYPE svg PUBLIC "-//W3C//DTD SVG 1.1//EN" "http://www.w3.org/Graphics/SVG/1.1/DTD/svg11.dtd"><svg t="1632880531876" class="icon" viewBox="0 0 1024 1024" version="1.1" xmlns="http://www.w3.org/2000/svg" p-id="114763" xmlns:xlink="http://www.w3.org/1999/xlink" width="200" height="200"><defs><style type="text/css"></style></defs><path d="M665.73 153.544V0H562.996v153.544H307.089V0H204.726v153.544H0V307.09h870.456V153.544H665.73zM0 358.27h255.907v255.907H0z m562.996 71.95a205.097 205.097 0 0 0-51.181 132.776 170.605 170.605 0 0 0 5.192 51.181H307.089V358.27h255.907zM0 665.36h255.907v255.907H0z m562.996 30.783a363.833 363.833 0 0 0-189.149 225.495H307.09V665.36h230.316zM562.996 562.996a153.915 153.915 0 1 0 153.915-155.028 153.915 153.915 0 0 0-153.915 153.544z" p-id="114764"></path><path d="M716.911 716.911A308.201 308.201 0 0 0 407.968 1024H1024a307.83 307.83 0 0 0-307.089-307.089z" p-id="114765"></path></svg>