<?xml version="1.0" standalone="no"?><!DOCTYPE svg PUBLIC "-//W3C//DTD SVG 1.1//EN" "http://www.w3.org/Graphics/SVG/1.1/DTD/svg11.dtd"><svg t="1632879307147" class="icon" viewBox="0 0 1024 1024" version="1.1" xmlns="http://www.w3.org/2000/svg" p-id="41300" xmlns:xlink="http://www.w3.org/1999/xlink" width="200" height="200"><defs><style type="text/css"></style></defs><path d="M502.221 94.81l329.488 329.494L603.19 652.823l-116.923-116.93L103.64 918.546c-23.473 23.473-61.547 23.473-85.03 0C-4.87 895.069-4.87 857 18.609 833.51L401.24 450.879l-127.544-127.55L502.215 94.81h0.006zM194.629 276.149c19.079 19.079 50.008 19.079 69.088 0L455.041 84.825c19.079-19.079 19.079-50.008 0-69.088-19.078-19.074-50.008-19.074-69.082 0L194.629 207.05c-19.073 19.079-19.073 50.02 0 69.099z m644.821 197.59l-191.324 191.33c-19.079 19.079-19.079 50.008 0 69.082 19.079 19.079 50.003 19.079 69.082 0l191.33-191.324c19.073-19.079 19.073-50.01 0-69.088-19.08-19.073-50.009-19.073-69.088 0z m183.544 548.829c0-56.608-45.877-102.489-102.484-102.489H543.704c-56.613 0-102.49 45.881-102.49 102.489H1023h-0.006z m0 0" p-id="41301"></path></svg>