<?xml version="1.0" standalone="no"?><!DOCTYPE svg PUBLIC "-//W3C//DTD SVG 1.1//EN" "http://www.w3.org/Graphics/SVG/1.1/DTD/svg11.dtd"><svg t="1632878233317" class="icon" viewBox="0 0 1024 1024" version="1.1" xmlns="http://www.w3.org/2000/svg" p-id="6810" xmlns:xlink="http://www.w3.org/1999/xlink" width="200" height="200"><defs><style type="text/css"></style></defs><path d="M827.733333 618.666667l12.8-42.666667 132.266667 34.133333-12.8 42.666667-132.266667-34.133333z m-85.333333-388.266667l-29.866667-29.866667 93.866667-93.866666 29.866667 29.866666-93.866667 93.866667z m34.133333 196.266667l-12.8-42.666667 132.266667-29.866667 12.8 42.666667-132.266667 29.866667z m-686.933333 25.6l486.4-277.333334c29.866667-17.066667 68.266667-8.533333 85.333333 25.6 4.266667 4.266667 4.266667 8.533333 4.266667 12.8l115.2 409.6c8.533333 34.133333-8.533333 68.266667-42.666667 76.8-4.266667 0-12.8 4.266667-17.066666 4.266667l-567.466667-4.266667c-29.866667 0-55.466667-21.333333-59.733333-46.933333l-34.133334-123.733333c-8.533333-29.866667 4.266667-59.733333 29.866667-76.8z m490.666667 290.133333l25.6 51.2c8.533333 34.133333-8.533333 68.266667-42.666667 76.8l-157.866667 42.666667c-34.133333 8.533333-68.266667-12.8-76.8-46.933334l-46.933333-128h298.666667z" p-id="6811"></path></svg>