<?xml version="1.0" standalone="no"?><!DOCTYPE svg PUBLIC "-//W3C//DTD SVG 1.1//EN" "http://www.w3.org/Graphics/SVG/1.1/DTD/svg11.dtd"><svg t="1632879762798" class="icon" viewBox="0 0 1024 1024" version="1.1" xmlns="http://www.w3.org/2000/svg" p-id="65787" xmlns:xlink="http://www.w3.org/1999/xlink" width="200" height="200"><defs><style type="text/css"></style></defs><path d="M858.46205 263.084927l-96.695569-96.69557c-35.515857-35.515857-93.04668-35.515857-128.440908 0L536.630004 263.084927c-35.515857 35.515857-35.515857 93.04668 0 128.440907l96.695569 96.69557c35.515857 35.515857 93.04668 35.515857 128.440908 0l96.695569-96.69557c35.515857-35.394227 35.515857-92.92505 0-128.440907z m-33.083264 115.304906l-76.869937 76.869937c-28.218078 28.218078-73.829196 28.218078-102.047274 0l-76.869937-76.869937c-28.218078-28.218078-28.218078-73.829196 0-102.047275l76.869937-76.869937c28.218078-28.218078 73.829196-28.218078 102.047274 0l76.869937 76.869937c28.096449 28.096449 28.096449 73.829196 0 102.047275zM366.591757 567.402304H229.758404c-50.111415 0-90.857346 40.624302-90.857347 90.857347v136.833353c0 50.111415 40.624302 90.857346 90.857347 90.857346h136.833353c50.111415 0 90.857346-40.624302 90.857346-90.857346V658.259651c0-50.233044-40.745932-90.857346-90.857346-90.857347zM229.758404 486.518589h136.833353c50.111415 0 90.857346-40.624302 90.857346-90.857347V258.949519c0-50.111415-40.624302-90.857346-90.857346-90.857347H229.758404c-50.111415 0-90.857346 40.624302-90.857347 90.857347v136.833353c0 50.111415 40.624302 90.735717 90.857347 90.735717zM765.901889 567.402304H629.068535c-50.111415 0-90.857346 40.624302-90.857346 90.857347v136.833353c0 50.111415 40.624302 90.857346 90.857346 90.857346h136.833354c50.111415 0 90.857346-40.624302 90.857346-90.857346V658.259651c0-50.233044-40.745932-90.857346-90.857346-90.857347z" p-id="65788"></path></svg>