<?xml version="1.0" standalone="no"?><!DOCTYPE svg PUBLIC "-//W3C//DTD SVG 1.1//EN" "http://www.w3.org/Graphics/SVG/1.1/DTD/svg11.dtd"><svg t="1632880576284" class="icon" viewBox="0 0 1024 1024" version="1.1" xmlns="http://www.w3.org/2000/svg" p-id="117760" xmlns:xlink="http://www.w3.org/1999/xlink" width="200" height="200"><defs><style type="text/css"></style></defs><path d="M438.9376 570.4704c26.2656 16.384-64.1536 79.2576-63.3856 169.2672 0.8192 90.0608 69.12 178.8416 29.2864 181.8112-11.3664 0.8704-36.352 1.3824-75.0592 1.536h-43.1616c-47.7696-0.1536-109.1584-0.6656-184.2176-1.536a51.2 51.2 0 0 1-51.2-51.2v-124.3136a175.5648 175.5648 0 0 1 175.5648-175.5136c116.1216-5.1712 186.88-5.1712 212.1728 0zM716.8 522.24c109.4656 0 245.76 130.304 245.76 187.2384s-136.2944 187.2384-245.76 187.2384c-108.9024 0-245.76-131.9424-245.76-187.2384S607.8976 522.24 716.8 522.24z m0 81.92c-37.1712 0-77.6192 21.76-116.3776 59.136-14.848 14.336-28.4672 30.0032-39.424 44.8l-0.9728 1.3824 9.728 12.5952c6.0416 7.5776 12.6976 15.2064 19.7632 22.6304l10.9056 10.9568c38.7584 37.376 79.2064 59.136 116.3776 59.136 37.376 0 77.9776-21.504 116.5312-58.368 14.848-14.2336 28.4672-29.8496 39.1168-44.4416l1.792-2.5088-1.792-2.5088a340.5824 340.5824 0 0 0-28.2112-33.536l-10.9056-10.9056c-38.5536-36.864-79.104-58.368-116.5312-58.368z m3.4304 41.472a61.44 61.44 0 1 1 0 122.88 61.44 61.44 0 0 1 0-122.88zM402.2784 102.4a175.5648 175.5648 0 0 1 175.5648 175.5648C577.8432 374.8864 499.2 512 402.2784 512 305.3568 512 226.816 374.8864 226.816 277.9648A175.5648 175.5648 0 0 1 402.2784 102.4z" p-id="117761"></path></svg>