<?xml version="1.0" standalone="no"?><!DOCTYPE svg PUBLIC "-//W3C//DTD SVG 1.1//EN" "http://www.w3.org/Graphics/SVG/1.1/DTD/svg11.dtd"><svg t="1632879172574" class="icon" viewBox="0 0 1024 1024" version="1.1" xmlns="http://www.w3.org/2000/svg" p-id="38682" xmlns:xlink="http://www.w3.org/1999/xlink" width="200" height="200"><defs><style type="text/css"></style></defs><path d="M826.181818 286.254545c0-44.218182-44.218182-44.218182-44.218182-44.218181H242.036364s-44.218182 0-44.218182 44.218181v44.218182h628.363636v-44.218182z m-134.981818-134.981818H332.8s-44.218182 0-44.218182 44.218182h449.163637c-2.327273-44.218182-46.545455-44.218182-46.545455-44.218182z m225.745455 179.2l-25.6-25.6v72.145455H134.981818v-72.145455l-25.6 25.6c-25.6 25.6-46.545455 34.909091-34.909091 90.763637s62.836364 365.381818 69.818182 404.945454c9.309091 46.545455 55.854545 44.218182 55.854546 44.218182h628.363636s46.545455 0 55.854545-44.218182c6.981818-41.890909 58.181818-349.090909 69.818182-404.945454 6.981818-55.854545-11.636364-62.836364-37.236363-90.763637z m-225.745455 244.363637s0 44.218182-44.218182 44.218181H377.018182c-44.218182 0-44.218182-44.218182-44.218182-44.218181v-90.763637H395.636364v72.145455h232.727272v-72.145455h62.836364v90.763637z" p-id="38683"></path></svg>