<?xml version="1.0" standalone="no"?><!DOCTYPE svg PUBLIC "-//W3C//DTD SVG 1.1//EN" "http://www.w3.org/Graphics/SVG/1.1/DTD/svg11.dtd"><svg t="1632879702748" class="icon" viewBox="0 0 1024 1024" version="1.1" xmlns="http://www.w3.org/2000/svg" p-id="64315" xmlns:xlink="http://www.w3.org/1999/xlink" width="200" height="200"><defs><style type="text/css"></style></defs><path d="M512.64 1002.88c-30.08 0-56.96-5.76-80.64-17.92l-400.64-192c-23.04-10.24-32.64-32-25.6-54.4 8.96-27.52 35.2-28.8 58.88-21.12 28.8 8.96 378.24 181.12 403.84 192 13.44 5.76 27.52 8.32 42.24 8.32s29.44-2.56 42.24-8.32c8.96-4.48 18.56-8.96 27.52-13.44 60.8-29.44 302.72-145.28 362.88-174.08 12.16-5.76 25.6-11.52 39.04-10.24 15.36 0.64 26.88 10.24 35.2 23.04 12.8 19.2 3.2 46.72-16 55.04-61.44 26.88-383.36 183.04-393.6 188.16-5.12 2.56-9.6 4.48-14.72 7.04-26.24 12.16-53.76 17.92-80.64 17.92z m-3.2-230.4c-30.08 0-56.96-5.76-80.64-17.92L28.16 561.92C14.72 554.88 3.84 545.28 1.28 535.04c-1.92-6.4-1.28-13.44 1.28-19.84 3.2-8.32 8.96-19.84 16.64-24.96 8.96-6.4 19.84-6.4 30.72-3.84 11.52 2.56 370.56 176 418.56 199.04 0 0 0.64 0 0.64 0.64 13.44 5.76 27.52 8.32 42.24 8.32s29.44-2.56 42.24-8.32c120.32-51.84 391.68-190.72 410.88-197.12 6.4-2.56 13.44-3.2 20.48-2.56 12.16 1.28 23.68 8.32 30.08 18.56 14.72 23.68 0 48-22.4 58.24-120.96 57.6-242.56 115.2-363.52 172.8-38.4 17.92-75.52 36.48-119.68 36.48z m1.92-236.16c-19.84 0-39.68-4.48-56.96-12.8L43.52 334.08c-16.64-7.04-30.08-19.84-35.84-35.2-5.12-13.44-5.12-27.52 0.64-40.32v-1.28c5.12-15.36 17.92-28.16 33.28-33.28h0.64L451.2 33.92c17.28-8.96 37.12-13.44 56.96-13.44 19.84 0 39.68 4.48 56.96 12.8L979.2 222.72c33.92 14.08 48 45.44 35.2 76.16l-0.64 0.64c-5.12 15.36-17.92 28.16-33.28 33.28h-0.64L568.32 523.52c-17.28 8.32-37.12 12.8-56.96 12.8z" p-id="64316"></path></svg>