<?xml version="1.0" standalone="no"?><!DOCTYPE svg PUBLIC "-//W3C//DTD SVG 1.1//EN" "http://www.w3.org/Graphics/SVG/1.1/DTD/svg11.dtd"><svg t="1632879976185" class="icon" viewBox="0 0 1024 1024" version="1.1" xmlns="http://www.w3.org/2000/svg" p-id="78789" xmlns:xlink="http://www.w3.org/1999/xlink" width="200" height="200"><defs><style type="text/css"></style></defs><path d="M165.260434 1024A133.924571 133.924571 0 0 1 36.675291 888.246857V292.205714a136.045714 136.045714 0 0 1 128.585143-143.36h552.155429a131.657143 131.657143 0 0 1 128.585143 143.36v596.041143A133.924571 133.924571 0 0 1 717.415863 1024z m39.497143-235.739429a35.620571 35.620571 0 0 0 37.741714 37.668572h418.523429c22.747429 0 31.817143-15.213714 30.281143-37.668572a33.645714 33.645714 0 0 0-37.888-37.741714H242.499291a35.693714 35.693714 0 0 0-37.595428 37.668572z m0-196.169142a35.620571 35.620571 0 0 0 37.741714 37.668571h418.523429c22.747429 0 31.670857-17.115429 30.281143-37.668571a35.693714 35.693714 0 0 0-37.888-37.741715H242.499291a35.693714 35.693714 0 0 0-37.595428 37.668572z m0-196.169143a40.448 40.448 0 0 0 37.741714 37.741714h418.523429c22.747429 0 31.670857-11.922286 30.281143-37.741714a35.620571 35.620571 0 0 0-37.888-37.668572H242.499291a35.620571 35.620571 0 0 0-37.595428 37.595429z m694.857143 313.709714v-577.828571a47.177143 47.177143 0 0 0-43.885714-43.885715h-533.942857a42.203429 42.203429 0 0 1-43.885715-43.885714 42.203429 42.203429 0 0 1 43.885715-43.885714h533.942857a141.458286 141.458286 0 0 1 131.657143 131.657143v577.828571a47.104 47.104 0 0 1-43.885715 43.885714 47.177143 47.177143 0 0 1-43.739428-44.032z" p-id="78790"></path></svg>