<?xml version="1.0" standalone="no"?><!DOCTYPE svg PUBLIC "-//W3C//DTD SVG 1.1//EN" "http://www.w3.org/Graphics/SVG/1.1/DTD/svg11.dtd"><svg t="1632878742144" class="icon" viewBox="0 0 1024 1024" version="1.1" xmlns="http://www.w3.org/2000/svg" p-id="26585" xmlns:xlink="http://www.w3.org/1999/xlink" width="200" height="200"><defs><style type="text/css"></style></defs><path d="M833.35009766 833.35009766a24.71923828 24.71923828 0 0 1 0 49.43847656H190.64990234a24.71923828 24.71923828 0 0 1 0-49.43847656h642.70019532z m24.71923828-692.13867188a49.43847656 49.43847656 0 0 1 49.43847656 49.43847656v543.82324219a49.43847656 49.43847656 0 0 1-49.43847656 49.43847656H165.93066406a49.43847656 49.43847656 0 0 1-49.43847656-49.43847656V190.64990234a49.43847656 49.43847656 0 0 1 49.43847656-49.43847656h692.13867188zM551.40246583 303.36962891a24.71923828 24.71923828 0 0 0-30.52825929 12.13714599l-1.1618042 2.6449585-86.51733398 237.72491455-73.02062989-87.01171875a24.94171143 24.94171143 0 0 0-2.94158935-2.9663086 24.71923828 24.71923828 0 0 0-38.01818847-1.6809082l-1.95281983 2.42248536-85.05889892 121.49505615a24.71923828 24.71923828 0 0 0 38.56201172 30.77545166l1.92810058-2.42248536 66.7666626-95.41625976 78.85437012 93.95782471 0.74157714 0.69213867a24.71923828 24.71923828 0 0 0 44.51934815 0.74157714l1.1618042-2.64495849 87.03643799-239.20806884 134.79400634 160.7244873a24.71923828 24.71923828 0 0 0 37.72155762 4.96856689l2.15057373-2.22473145 63.55316163-75.76446532a24.71923828 24.71923828 0 0 0-35.71929932-34.03839112l-2.15057374 2.24945069-44.44519043 52.9486084L565.76434326 314.3449707a25.9552002 25.9552002 0 0 0-4.12811279-3.93035888 24.59564209 24.59564209 0 0 0-10.23376465-7.02026367z" p-id="26586"></path></svg>