<?xml version="1.0" standalone="no"?><!DOCTYPE svg PUBLIC "-//W3C//DTD SVG 1.1//EN" "http://www.w3.org/Graphics/SVG/1.1/DTD/svg11.dtd"><svg t="1632878318619" class="icon" viewBox="0 0 1024 1024" version="1.1" xmlns="http://www.w3.org/2000/svg" p-id="14804" xmlns:xlink="http://www.w3.org/1999/xlink" width="200" height="200"><defs><style type="text/css"></style></defs><path d="M532.940639 1014.794937H63.350766A29.529114 29.529114 0 0 1 33.821652 985.316456V138.065823h741.883544V513.113924a29.579747 29.579747 0 0 1-33.265823 29.286076 255.007595 255.007595 0 0 0-135.331645 20.536709C485.760892 616.931646 418.267221 738.278481 445.26469 866.450633a279.959494 279.959494 0 0 0 87.675949 148.344304z m-299.858228-664.506329v2.450633a33.164557 33.164557 0 0 0 33.164557 33.164556h247.017722a33.174684 33.174684 0 0 0 33.174683-33.164556v-2.450633a33.174684 33.174684 0 0 0-33.174683-33.174684H266.246968a33.174684 33.174684 0 0 0-33.164557 33.174684z m0 137.53924v2.531646a33.113924 33.113924 0 0 0 33.124051 33.12405h247.088607a33.124051 33.124051 0 0 0 33.134178-33.12405v-2.531646A33.134177 33.134177 0 0 0 513.305196 454.683544h-247.088608a33.124051 33.124051 0 0 0-33.134177 33.144304zM64.586209 0h118.146835v39.159494H64.586209z" p-id="14805"></path><path d="M717.608993 1015.746835c-100.162025 0-184.536709-73.741772-205.56962-168.526582-21.113924-100.101266 31.594937-194.875949 126.521519-236.962025s200.334177-5.316456 258.278481 78.987342 42.146835 194.81519-26.329114 268.556962a229.772152 229.772152 0 0 1-152.911392 57.944303zM63.360892 108.901266h686.288608a26.04557 26.04557 0 0 1 26.045569 26.045569v55.746836A26.04557 26.04557 0 0 1 749.6495 216.708861H59.867221A26.04557 26.04557 0 0 1 33.821652 190.693671V138.43038a29.539241 29.539241 0 0 1 29.53924-29.539241z" p-id="14806"></path><path d="M706.895069 880.729114a18.825316 18.825316 0 0 1-26.096202 0l-78.116456-76.465823a17.863291 17.863291 0 0 1-0.232911-25.316456l0.232911-0.232911a18.78481 18.78481 0 0 1 26.065823 0l65.053164 63.64557 117.24557-114.602532a18.825316 18.825316 0 0 1 26.096203 0 17.944304 17.944304 0 0 1 0.202531 25.367089l-0.202531 0.202531-130.248102 127.402532z" fill="#FFFFFF" p-id="14807"></path></svg>