<?xml version="1.0" standalone="no"?><!DOCTYPE svg PUBLIC "-//W3C//DTD SVG 1.1//EN" "http://www.w3.org/Graphics/SVG/1.1/DTD/svg11.dtd"><svg t="1632878596565" class="icon" viewBox="0 0 1118 1024" version="1.1" xmlns="http://www.w3.org/2000/svg" p-id="23424" xmlns:xlink="http://www.w3.org/1999/xlink" width="218.359375" height="200"><defs><style type="text/css"></style></defs><path d="M1098.507651 640.023469a255.888072 255.888072 0 0 0-53.710788-79.172504 248.248114 248.248114 0 0 0-79.172503-53.147539 243.38107 243.38107 0 0 0-96.142166-19.222656 247.150501 247.150501 0 0 0-229.632033 151.542699 250.01007 250.01007 0 0 0 0 192.26989 247.973711 247.973711 0 0 0 53.161982 79.172503 255.844746 255.844746 0 0 0 79.172504 53.72523 240.088233 240.088233 0 0 0 97.25422 19.785905 237.156453 237.156453 0 0 0 96.142166-19.785905 254.284981 254.284981 0 0 0 132.868849-132.868849 243.279974 243.279974 0 0 0 0-192.26989z m-76.905067 124.420123a42.792435 42.792435 0 0 1-28.884533 10.109586H748.470446a42.792435 42.792435 0 0 1-28.884533-10.109586q-11.871543-10.181798-11.871543-27.15146a40.539441 40.539441 0 0 1 40.712749-40.712749H992.761378a40.539441 40.539441 0 0 1 40.712749 40.712749q0 16.969663-11.871543 27.15146zM134.255307 699.727797l230.51301-42.388051v-107.060519L134.255307 605.80974v93.918057zM731.414129 441.052367a325.817525 325.817525 0 0 1 189.843589-22.038898V116.216916L775.852982 0 291.849315 165.88387v41.463746l439.564814-135.757302zM134.255307 1021.718122h230.51301v-112.461927L134.255307 924.608324v97.109798zM134.255307 860.15249l230.51301-20.363595v-107.06052L134.255307 768.285235v91.867255zM1022.512447 1020.346107h1.444226v-0.837652zM134.255307 536.053594l230.51301-58.130121v-111.393199L134.255307 438.106145v97.947449z" p-id="23425"></path><path d="M537.598917 738.158667a323.290129 323.290129 0 0 1 82.840839-216.547339V259.180909l-130.095934-72.485734L0.288845 348.607421 0 1023.985558h64.513603v-642.680846l366.703581-110.69997v749.914672h189.193687v-65.813407a323.290129 323.290129 0 0 1-82.811954-216.54734z" p-id="23426"></path></svg>