<?xml version="1.0" standalone="no"?><!DOCTYPE svg PUBLIC "-//W3C//DTD SVG 1.1//EN" "http://www.w3.org/Graphics/SVG/1.1/DTD/svg11.dtd"><svg t="1632879672324" class="icon" viewBox="0 0 1024 1024" version="1.1" xmlns="http://www.w3.org/2000/svg" p-id="63405" xmlns:xlink="http://www.w3.org/1999/xlink" width="200" height="200"><defs><style type="text/css"></style></defs><path d="M611.2 851.2c-9.6 0-16-6.4-16-12.8V640c0-6.4 6.4-12.8 16-12.8h48c9.6 0 16 6.4 16 12.8v198.4c0 6.4-6.4 12.8-16 12.8h-48z m211.2-470.4c-169.6 0-307.2 131.2-307.2 294.4 0 153.6 121.6 278.4 278.4 294.4H35.2v-96h99.2V115.2c0-22.4 9.6-41.6 25.6-57.6 12.8-16 32-22.4 54.4-22.4h332.8c22.4 0 44.8 9.6 57.6 22.4 16 16 25.6 35.2 25.6 57.6v163.2h249.6c22.4 0 44.8 9.6 57.6 22.4 16 16 25.6 35.2 25.6 57.6V416c-38.4-22.4-89.6-35.2-140.8-35.2z m-313.6-243.2H256c-22.4 0-41.6 19.2-41.6 41.6S233.6 217.6 256 217.6h249.6c22.4 0 41.6-19.2 41.6-41.6s-16-38.4-38.4-38.4z m0 243.2H256c-22.4 0-41.6 19.2-41.6 41.6s19.2 38.4 41.6 41.6h249.6c22.4 0 41.6-19.2 41.6-41.6s-16-41.6-38.4-41.6zM742.4 832v-291.2c0-12.8 6.4-19.2 16-19.2h48c9.6 0 16 9.6 16 19.2V832c0 12.8-6.4 19.2-16 19.2h-48c-9.6 0-16-9.6-16-19.2z m160-288h48c9.6 0 16 9.6 16 19.2V832c0 9.6-6.4 19.2-16 19.2h-48c-9.6 0-16-9.6-16-19.2v-268.8c3.2-9.6 9.6-19.2 16-19.2z" p-id="63406"></path></svg>