<?xml version="1.0" standalone="no"?><!DOCTYPE svg PUBLIC "-//W3C//DTD SVG 1.1//EN" "http://www.w3.org/Graphics/SVG/1.1/DTD/svg11.dtd"><svg t="1632879397796" class="icon" viewBox="0 0 1024 1024" version="1.1" xmlns="http://www.w3.org/2000/svg" p-id="45992" xmlns:xlink="http://www.w3.org/1999/xlink" width="200" height="200"><defs><style type="text/css"></style></defs><path d="M492.38408 98.627759v462.91012h495.677986c-3.615985 156.735363-72.863704 258.782949-156.703363 335.358637-98.4316 83.80766-225.983082 127.551482-357.214549 123.903497-120.255511-7.29597-269.694904-47.359808-389.982416-204.127171-32.799867-40.095837-80.191674-138.495437-83.839659-233.279052-10.943956-313.438727 262.398934-492.030001 492.062001-484.766031z m502.973956 280.67086c32.831867 80.191674 29.183881 156.735363 25.535897 156.735363H532.479917l276.990875-386.36643c91.13563 54.687778 156.735363 145.791408 185.919244 229.631067zM652.799428 18.468085c76.543689 21.855911 109.343556 36.447852 153.055378 65.599733L528.831932 470.402249V0.228159s51.039793-3.647985 123.935496 18.239926z" fill="#8a8a8a" p-id="45993"></path></svg>