<?xml version="1.0" standalone="no"?><!DOCTYPE svg PUBLIC "-//W3C//DTD SVG 1.1//EN" "http://www.w3.org/Graphics/SVG/1.1/DTD/svg11.dtd"><svg t="1632884628462" class="icon" viewBox="0 0 1066 1024" version="1.1" xmlns="http://www.w3.org/2000/svg" p-id="130066" xmlns:xlink="http://www.w3.org/1999/xlink" width="208.203125" height="200"><defs><style type="text/css"></style></defs><path d="M407.893333 80.213333L76.8 220.16V870.4H460.8V80.213333h-52.906667z m-46.08 566.613334H177.493333V597.333333h184.32v49.493334z m0-95.573334H177.493333v-47.786666h184.32v47.786666z m0-95.573333H177.493333v-47.786667h184.32v47.786667z m0-93.866667H177.493333v-47.786666h184.32v47.786666zM853.333333 436.906667l1.706667-121.173334h-341.333333v249.173334c56.32-128 206.506667-187.733333 334.506666-129.706667 1.706667 0 3.413333 1.706667 5.12 1.706667zM595.626667 870.4h-80.213334v-102.4c15.36 42.666667 44.373333 76.8 80.213334 102.4z" p-id="130067"></path><path d="M745.813333 803.84c75.093333 0 136.533333-61.44 136.533334-136.533333s-61.44-136.533333-136.533334-136.533334-136.533333 61.44-136.533333 136.533334 61.44 136.533333 136.533333 136.533333z m0 39.253333c-97.28 0-175.786667-78.506667-175.786666-175.786666S648.533333 491.52 745.813333 491.52 921.6 570.026667 921.6 667.306667s-78.506667 175.786667-175.786667 175.786666z" p-id="130068"></path><path d="M884.053333 776.533333l54.613334 54.613334c15.36 15.36 15.36 39.253333 1.706666 54.613333-15.36 15.36-39.253333 15.36-54.613333 1.706667l-1.706667-1.706667-54.613333-54.613333c-15.36-15.36-15.36-39.253333-1.706667-54.613334 15.36-15.36 39.253333-15.36 56.32 0z" p-id="130069"></path></svg>