<?xml version="1.0" standalone="no"?><!DOCTYPE svg PUBLIC "-//W3C//DTD SVG 1.1//EN" "http://www.w3.org/Graphics/SVG/1.1/DTD/svg11.dtd"><svg t="1632879028381" class="icon" viewBox="0 0 1024 1024" version="1.1" xmlns="http://www.w3.org/2000/svg" p-id="36187" xmlns:xlink="http://www.w3.org/1999/xlink" width="200" height="200"><defs><style type="text/css"></style></defs><path d="M946.307085 961.502347l-162.152039-162.152039a145.914893 145.914893 0 0 0-229.075411-177.36522 145.988033 145.988033 0 1 0 177.365221 229.075411l162.152039 162.152039a36.570149 36.570149 0 0 0 51.71019-51.710191z m-225.198975-199.161029l-9.581379 16.237146-16.237146 9.508239a72.920876 72.920876 0 0 1-88.5729-10.824764 73.140297 73.140297 0 0 1 103.42038-103.420381c23.404895 23.258615 27.939594 59.682483 10.971045 88.49976z" fill="#8a8a8a" p-id="36188"></path><path d="M414.869685 725.332328c0-55.440345 19.6016-105.83401 51.125068-146.426875H262.152745a36.570149 36.570149 0 0 1 0-73.140298h219.420891c16.017725 0 29.109838 10.385922 34.156519 24.648281a238.071667 238.071667 0 0 1 139.185986-45.127564c3.730155 0 7.240889 0.585122 10.897904 0.731403v-131.652535h0.07314V43.884178a43.884178 43.884178 0 0 0-43.884178-43.884178H110.97175a43.884178 43.884178 0 0 0-43.957318 43.884178v863.055508a43.884178 43.884178 0 0 0 43.957318 43.884178h368.188257l97.642296 0.438842a239.315053 239.315053 0 0 1-161.932618-225.930378zM262.152745 182.19248h219.420891a36.570149 36.570149 0 0 1 0 73.140298h-219.420891a36.570149 36.570149 0 0 1 0-73.140298z m0 161.786338h219.420891a36.570149 36.570149 0 0 1 0 73.140297h-219.420891a36.570149 36.570149 0 0 1 0-73.140297zM862.854006 607.576449l-0.365702-30.645784h0.658263V425.67653a43.884178 43.884178 0 0 0-43.884178-43.884178h-80.308047v119.364965a241.582402 241.582402 0 0 1 123.899664 106.419132z" fill="#8a8a8a" p-id="36189"></path></svg>