<?xml version="1.0" standalone="no"?><!DOCTYPE svg PUBLIC "-//W3C//DTD SVG 1.1//EN" "http://www.w3.org/Graphics/SVG/1.1/DTD/svg11.dtd"><svg t="1632878919416" class="icon" viewBox="0 0 1024 1024" version="1.1" xmlns="http://www.w3.org/2000/svg" p-id="33240" xmlns:xlink="http://www.w3.org/1999/xlink" width="200" height="200"><defs><style type="text/css"></style></defs><path d="M888.2 907.2L805 823.7c16.8-25.4 26.7-55.8 26.7-88.5 0-88.8-71.8-160.7-160.3-160.7-88.5 0-160.3 72-160.3 160.7 0 88.8 71.8 160.7 160.3 160.7 32.7 0 63-9.9 88.3-26.7l83.3 83.5c12.5 12.5 32.9 12.5 45.3 0 12.4-12.6 12.4-33-0.1-45.5z m-216.9-75.6c-53.1 0-96.2-43.2-96.2-96.4 0-53.3 43.1-96.4 96.2-96.4s96.2 43.2 96.2 96.4-43.1 96.4-96.2 96.4z m0-705.3c0-35.5-28.7-64.3-64.1-64.3H190.5c-35.4 0-64.1 28.8-64.1 64.3v546.4c0 35.5 28.7 64.3 64.1 64.3V158.4c0-17.7 14.4-32.1 32.1-32.1h448.7zM490.2 672.7H318.7v-64.3h209.5c35.2-39.4 86.2-64.3 143.1-64.3 35.1 0 67.9 9.6 96.2 26V222.7c0-35.5-28.7-64.3-64.1-64.3H286.7c-35.4 0-64.1 28.8-64.1 64.3v546.4c0 35.5 28.7 64.3 64.1 64.3H505c-16.4-28.4-26-61.2-26-96.4 0-22.6 4.1-44.1 11.2-64.3zM318.7 287h352.6v64.3H318.7V287z m0 160.7h352.6V512H318.7v-64.3z" p-id="33241"></path></svg>