<?xml version="1.0" standalone="no"?><!DOCTYPE svg PUBLIC "-//W3C//DTD SVG 1.1//EN" "http://www.w3.org/Graphics/SVG/1.1/DTD/svg11.dtd"><svg t="1632879836007" class="icon" viewBox="0 0 1024 1024" version="1.1" xmlns="http://www.w3.org/2000/svg" p-id="68992" xmlns:xlink="http://www.w3.org/1999/xlink" width="200" height="200"><defs><style type="text/css"></style></defs><path d="M980.088 961.606l-94.755-95.009c19.082-28.897 30.324-63.474 30.324-100.729 0-100.993-81.642-182.859-182.356-182.859-100.718 0-182.36 81.866-182.36 182.859 0 100.989 81.642 182.855 182.36 182.855 37.156 0 71.633-11.279 100.457-30.412l94.748 95.02c14.184 14.225 37.398 14.225 51.582 0C994.273 999.107 994.273 975.831 980.088 961.606zM733.301 875.583c-60.425 0-109.417-49.128-109.417-109.714 0-60.59 48.992-109.714 109.417-109.714 60.421 0 109.413 49.124 109.413 109.714C842.714 826.455 793.722 875.583 733.301 875.583zM733.301 73.145c0-40.396-32.661-73.145-72.947-73.145L186.221 0c-40.282 0-72.943 32.749-72.943 73.145l0 621.714c0 40.392 32.661 73.141 72.943 73.141L186.221 109.714c0-20.194 16.334-36.569 36.473-36.569L733.301 73.145zM527.181 694.859 332.108 694.859l0-73.145L570.522 621.714c40.062-44.795 98.043-73.141 162.779-73.141 39.904 0 77.199 10.882 109.413 29.598L842.714 182.859c0-40.392-32.661-73.145-72.943-73.145L295.638 109.714c-40.286 0-72.943 32.753-72.943 73.145l0 621.714c0 40.392 32.658 73.141 72.943 73.141l248.347 0c-18.66-32.302-29.517-69.696-29.517-109.714C514.467 742.314 519.101 717.769 527.181 694.859zM332.108 256l401.193 0 0 73.145L332.108 329.145 332.108 256zM332.108 438.859l401.193 0 0 73.141L332.108 512 332.108 438.859z" p-id="68993"></path></svg>