<?xml version="1.0" standalone="no"?><!DOCTYPE svg PUBLIC "-//W3C//DTD SVG 1.1//EN" "http://www.w3.org/Graphics/SVG/1.1/DTD/svg11.dtd"><svg t="1632878844641" class="icon" viewBox="0 0 1024 1024" version="1.1" xmlns="http://www.w3.org/2000/svg" p-id="30913" xmlns:xlink="http://www.w3.org/1999/xlink" width="200" height="200"><defs><style type="text/css"></style></defs><path d="M579.413333 98.133333a42.666667 42.666667 0 0 0-31.146666-12.8h-68.266667a45.653333 45.653333 0 0 0-30.72 11.946667A1391.36 1391.36 0 0 1 328.533333 189.866667v48.213333a30.293333 30.293333 0 0 0 29.866667 30.293333h307.2a30.293333 30.293333 0 0 0 30.293333-30.293333V189.866667a1105.92 1105.92 0 0 1-116.48-91.733334zM512 183.04a21.333333 21.333333 0 0 1-21.333333-21.333333 21.76 21.76 0 0 1 21.333333-21.333334 21.333333 21.333333 0 0 1 0 42.666667z" fill="#666666" p-id="30914"></path><path d="M597.333333 706.133333a189.44 189.44 0 0 1 189.866667-189.44 184.32 184.32 0 0 1 66.133333 12.373334V241.92a52.48 52.48 0 0 0-52.48-52.053333h-26.453333v78.506666a52.906667 52.906667 0 0 1-52.48 52.48H301.653333a52.906667 52.906667 0 0 1-52.48-52.48V189.866667h-26.453333A52.48 52.48 0 0 0 170.666667 241.92v576a52.906667 52.906667 0 0 0 52.053333 52.48H695.466667a188.16 188.16 0 0 1-98.133334-164.266667z m-155.306666-58.453333l-2.133334-2.56L341.333333 533.76a20.053333 20.053333 0 0 1 0-27.733333h2.56a19.626667 19.626667 0 0 1 27.733334 0l85.333333 96.853333 193.28-170.666667a19.2 19.2 0 0 1 27.306667 0l2.56 2.56a19.626667 19.626667 0 0 1 0 27.306667L469.333333 649.386667a19.626667 19.626667 0 0 1-26.026666-1.706667z" fill="#666666" p-id="30915"></path><path d="M788.48 554.666667A151.466667 151.466667 0 1 0 938.666667 706.133333 151.466667 151.466667 0 0 0 788.48 554.666667zM896 725.333333l-24.746667 5.12a8.106667 8.106667 0 0 0-5.973333 5.12l-2.56 6.826667a8.106667 8.106667 0 0 0 0 8.106667l14.08 20.906666a8.533333 8.533333 0 0 1 0 10.24l-13.653333 13.226667a8.106667 8.106667 0 0 1-10.24 0l-20.906667-14.08a8.106667 8.106667 0 0 0-8.106667 0l-6.826666 2.56a8.106667 8.106667 0 0 0-5.12 5.973333l-4.693334 24.746667a8.533333 8.533333 0 0 1-8.106666 6.826667h-19.2a8.533333 8.533333 0 0 1-8.106667-6.826667l-3.84-25.6a8.106667 8.106667 0 0 0-5.12-5.973333l-6.826667-2.56a8.106667 8.106667 0 0 0-8.106666 0l-20.906667 14.08a8.106667 8.106667 0 0 1-10.24 0l-13.226667-13.226667a8.106667 8.106667 0 0 1 0-10.24l14.08-20.906667a8.106667 8.106667 0 0 0 0-8.106666l-2.56-6.826667a8.106667 8.106667 0 0 0-5.973333-5.12L682.666667 725.333333a7.68 7.68 0 0 1-6.826667-7.68v-19.2a8.533333 8.533333 0 0 1 6.826667-8.106666l24.746666-4.693334a8.96 8.96 0 0 0 5.973334-5.12l2.56-6.826666a8.106667 8.106667 0 0 0 0-8.106667l-14.08-20.906667a8.106667 8.106667 0 0 1 0-10.24l13.226666-13.653333a8.533333 8.533333 0 0 1 10.24 0l20.906667 14.08a8.106667 8.106667 0 0 0 8.106667 0l6.826666-2.56a8.106667 8.106667 0 0 0 5.12-5.973333l4.693334-24.746667a8.533333 8.533333 0 0 1 8.106666-6.826667h19.2a8.533333 8.533333 0 0 1 8.106667 6.826667l4.693333 24.746667a8.96 8.96 0 0 0 5.12 5.973333l6.826667 2.56a8.106667 8.106667 0 0 0 8.106667 0l20.906666-14.08a8.533333 8.533333 0 0 1 10.24 0l13.653334 13.653333a8.533333 8.533333 0 0 1 0 10.24l-14.08 20.906667a8.106667 8.106667 0 0 0 0 8.106667l2.56 6.826666a8.96 8.96 0 0 0 5.973333 5.12l24.746667 4.693334a8.533333 8.533333 0 0 1 6.826666 8.106666v19.2A7.68 7.68 0 0 1 896 725.333333z m-106.666667-66.133333a48.64 48.64 0 1 0 40.106667 75.946667 47.786667 47.786667 0 0 0-5.973333-61.44 46.933333 46.933333 0 0 0-34.133334-14.506667z m0 0" fill="#666666" p-id="30916"></path></svg>