<?xml version="1.0" standalone="no"?><!DOCTYPE svg PUBLIC "-//W3C//DTD SVG 1.1//EN" "http://www.w3.org/Graphics/SVG/1.1/DTD/svg11.dtd"><svg t="1632878538730" class="icon" viewBox="0 0 1024 1024" version="1.1" xmlns="http://www.w3.org/2000/svg" p-id="22970" xmlns:xlink="http://www.w3.org/1999/xlink" width="200" height="200"><defs><style type="text/css"></style></defs><path d="M583.441067 622.865067c-36.932267-9.796267-78.711467-12.356267-107.9296-51.985067 0 0-14.916267-17.3056 18.807466-59.562667 33.962667-42.427733 36.7616-109.602133 28.194134-161.5872-8.362667-51.985067-56.354133-86.698667-106.1888-86.698666-49.7664 0-97.757867 34.7136-106.222934 86.698666-8.6016 51.950933-5.7344 119.159467 28.194134 161.5872 33.757867 42.257067 18.875733 59.562667 18.875733 59.562667-29.0816 39.2192-70.485333 42.0864-107.178667 51.780267-14.5408 3.8912-28.4672 8.8064-40.482133 17.544533-42.564267 30.788267-32.0512 100.932267-32.0512 100.932267h477.7984s10.4448-70.144-32.017067-100.898134c-11.741867-8.6016-25.429333-13.380267-39.697066-17.408h-0.1024z" p-id="22971"></path><path d="M814.523733 640.273067c-11.9808-8.6016-25.361067-13.312-39.697066-17.169067-37.2736-10.001067-122.845867-69.358933-89.3952-111.854933 33.962667-42.120533 36.829867-109.499733 28.194133-161.655467-8.0896-51.575467-56.388267-86.528-106.120533-86.528-22.016 0-43.997867 7.202133-62.1568 20.0704 12.424533 17.237333 20.5824 37.341867 24.3712 58.88 5.700267 35.293867 13.824 120.900267-28.706134 185.924267v0.1024a23.415467 23.415467 0 0 0-6.2464 15.598933c0 13.960533 15.7696 22.254933 27.0336 24.917333l12.6976 2.935467c7.168 1.911467 14.336 3.310933 21.026134 5.188267 17.7152 4.846933 37.307733 11.4688 55.9104 24.8832 55.944533 40.6528 54.0672 115.268267 52.155733 139.605333h142.9504c0-0.034133 10.513067-70.2464-32.017067-100.898133z" p-id="22972"></path></svg>