<?xml version="1.0" standalone="no"?><!DOCTYPE svg PUBLIC "-//W3C//DTD SVG 1.1//EN" "http://www.w3.org/Graphics/SVG/1.1/DTD/svg11.dtd"><svg t="1632879459795" class="icon" viewBox="0 0 1024 1024" version="1.1" xmlns="http://www.w3.org/2000/svg" p-id="50765" xmlns:xlink="http://www.w3.org/1999/xlink" width="200" height="200"><defs><style type="text/css"></style></defs><path d="M468.735126 475.888548c124.210953 0 224.927819-92.342128 224.927819-206.148104 0-113.769137-100.716866-206.074426-224.927819-206.074426-124.20993 0-224.854141 92.306312-224.854141 206.074426C243.880985 383.54642 344.525196 475.888548 468.735126 475.888548z" p-id="50766"></path><path d="M875.302865 730.627323c-3.225461 0-5.089925 0-124.580367 52.683896l16.046464-131.774209c0.842181-6.850012-4.037966-13.077853-10.883885-13.911848-6.575766-0.797156-13.246699-1.204431-19.814278-1.204431-81.832773 0-151.024645 61.33288-160.936389 142.686746-10.81737 88.840374 52.653197 169.926134 141.489478 180.743504 6.576789 0.805342 13.239536 1.217734 19.823488 1.217734 81.83175 0 151.002133-61.35437 160.90569-142.692886 3.299139-27.060309-0.302899-54.685483-10.447956-79.974449C884.983341 733.701334 880.385627 730.627323 875.302865 730.627323z" p-id="50767"></path><path d="M913.55712 678.872588c-18.931165-44.593638-60.477396-75.980485-108.447944-81.934081-4.103458-0.5137-7.845689 2.421142-8.352225 6.525624l-15.821337 127.482463c-0.324388 2.653433 0.783853 5.27719 2.928702 6.9022 1.312902 0.99363 2.907213 1.509377 4.502547 1.509377 0.99363 0 1.994424-0.195451 2.921539-0.594541l118.30136-50.031487c1.833765-0.76748 3.269463-2.246157 4.0175-4.095271C914.362462 682.788781 914.332786 680.700213 913.55712 678.872588z" p-id="50768"></path><path d="M722.098577 600.994893c-64.578808-65.312518-154.221454-105.794511-253.327636-105.794511-196.756199 0-356.257913 159.501714-356.257913 356.258936 0 13.700023 0.800225 27.211758 2.305509 40.508599L566.792419 891.967918c-17.249873-28.857235-27.174919-62.59871-27.174919-98.66309C539.617499 690.335664 620.435153 606.243431 722.098577 600.994893z" p-id="50769"></path></svg>