<?xml version="1.0" standalone="no"?><!DOCTYPE svg PUBLIC "-//W3C//DTD SVG 1.1//EN" "http://www.w3.org/Graphics/SVG/1.1/DTD/svg11.dtd"><svg t="1632880357245" class="icon" viewBox="0 0 1024 1024" version="1.1" xmlns="http://www.w3.org/2000/svg" p-id="105870" xmlns:xlink="http://www.w3.org/1999/xlink" width="200" height="200"><defs><style type="text/css"></style></defs><path d="M557.056 139.904L314.624 284.032v458.752L557.056 887.04c45.824 26.24 85.248 6.528 85.248-45.824v-655.36c0-52.48-39.296-78.72-85.248-45.952zM52.48 382.336V644.48c0 52.48 45.824 98.304 98.304 98.304h98.304V284.032h-98.304c-52.48 0-98.304 45.952-98.304 98.304z m884.736 98.304H806.144c-19.712 0-32.768 13.056-32.768 32.768 0 19.712 13.056 32.768 32.768 32.768h131.072c19.712 0 32.768-13.056 32.768-32.768 0-19.584-13.056-32.768-32.768-32.768z m-19.712 334.336l-111.36-65.536c-13.056-6.528-32.768-6.528-45.824 13.056-6.528 13.056-6.528 32.768 13.056 45.824l111.36 65.536c13.056 6.528 32.768 6.528 45.824-13.056 6.656-13.056 0.128-39.296-13.056-45.824zM799.616 277.504l111.36-65.536c13.056-6.528 19.712-26.24 13.056-45.824-6.528-13.056-26.24-19.712-39.296-13.056l-111.36 65.536c-13.056 6.528-19.712 26.24-13.056 45.824 6.528 13.056 26.112 19.584 39.296 13.056z" fill="" p-id="105871"></path></svg>