<?xml version="1.0" standalone="no"?><!DOCTYPE svg PUBLIC "-//W3C//DTD SVG 1.1//EN" "http://www.w3.org/Graphics/SVG/1.1/DTD/svg11.dtd"><svg t="1632879197926" class="icon" viewBox="0 0 1024 1024" version="1.1" xmlns="http://www.w3.org/2000/svg" p-id="39686" xmlns:xlink="http://www.w3.org/1999/xlink" width="200" height="200"><defs><style type="text/css"></style></defs><path d="M837.253 837.253c0 29.127-24.273 53.4-53.4 53.4H113.929l94.664-441.762c0-29.127 24.272-53.4 53.4-53.4h614.096c29.127 0 53.4 24.273 53.4 53.4l-92.236 388.362zM220.729 356.655h601.96v-53.4c0-29.126-24.272-53.399-53.4-53.399H448.891v-48.545c0-29.127-24.272-53.4-53.4-53.4H128.494c-29.127 0-53.4 24.273-53.4 53.4v635.942l94.663-427.198c-2.427-31.554 21.846-53.4 50.973-53.4z m0 0" p-id="39687"></path></svg>