<?xml version="1.0" standalone="no"?><!DOCTYPE svg PUBLIC "-//W3C//DTD SVG 1.1//EN" "http://www.w3.org/Graphics/SVG/1.1/DTD/svg11.dtd"><svg t="1632879093955" class="icon" viewBox="0 0 1024 1024" version="1.1" xmlns="http://www.w3.org/2000/svg" p-id="36431" xmlns:xlink="http://www.w3.org/1999/xlink" width="200" height="200"><defs><style type="text/css"></style></defs><path d="M40.8576 324.288m8.8448 0l96.576 0q8.8448 0 8.8448 8.8448l0 241.7792q0 8.8448-8.8448 8.8448l-96.576 0q-8.8448 0-8.8448-8.8448l0-241.7792q0-8.8448 8.8448-8.8448Z" fill="#8a8a8a" p-id="36432"></path><path d="M407.1936 698.7136h-114.2784S309.76 849.792 430.72 1010.7264c0 0 104.1792 3.2896 120.9856-39.4112 0 0 10.0864-29.5552-23.5264-65.6896-10.0736-19.6992-104.192-101.8112-120.9856-206.912zM817.216 25.408c-205.0176 249.6-598.2336 262.7584-598.2336 262.7584v331.712c463.7952 23.04 601.6 200.3584 601.6 200.3584 178.1248-45.9904 161.28-367.8592 161.28-367.8592C995.3408-17.2928 817.216 25.408 817.216 25.408z" fill="#8a8a8a" p-id="36433"></path></svg>