<?xml version="1.0" standalone="no"?><!DOCTYPE svg PUBLIC "-//W3C//DTD SVG 1.1//EN" "http://www.w3.org/Graphics/SVG/1.1/DTD/svg11.dtd"><svg t="1632880006362" class="icon" viewBox="0 0 1025 1024" version="1.1" xmlns="http://www.w3.org/2000/svg" p-id="80365" xmlns:xlink="http://www.w3.org/1999/xlink" width="200.1953125" height="200"><defs><style type="text/css"></style></defs><path d="M610.603707 64.437073c8.491707 0 16.683707 3.396683 22.677854 9.390829l220.984195 221.084098c5.994146 5.994146 9.390829 14.086244 9.390829 22.577951v610.104195c0 17.682732-14.286049 31.96878-31.96878 31.968781h-639.37561c-17.682732 0-31.96878-14.286049-31.96878-31.968781v-831.188292c0-17.682732 14.286049-31.96878 31.96878-31.968781h418.291512z m162.641171 239.765854L623.890732 153.250341v150.952586H773.244878zM470.540488 321.685854c17.682732 0 31.96878-14.286049 31.96878-31.968781s-14.286049-31.96878-31.96878-31.96878H308.698537c-17.682732 0-31.96878 14.286049-31.968781 31.96878s14.286049 31.96878 31.968781 31.968781h161.841951z m241.464195 221.783414c17.582829 0 31.96878-14.286049 31.868878-31.96878 0-17.682732-14.286049-31.96878-31.968781-31.968781H312.195122c-17.682732 0-31.96878 14.286049-31.968781 31.968781s14.286049 31.96878 31.968781 31.96878h399.809561zM313.194146 766.251707h249.356488c17.682732 0 31.96878-14.286049 31.968781-31.96878s-14.286049-31.96878-31.968781-31.968781H313.194146c-17.682732 0-31.96878 14.286049-31.96878 31.968781s14.385951 31.96878 31.96878 31.96878z m340.667317-32.468292c0 17.682732 14.286049 31.96878 31.968781 31.96878h26.574049c17.682732 0 31.96878-14.286049 31.96878-31.96878s-14.286049-31.96878-31.96878-31.968781h-26.574049c-17.682732 0-31.96878 14.286049-31.968781 31.968781z" p-id="80366"></path></svg>