<?xml version="1.0" standalone="no"?><!DOCTYPE svg PUBLIC "-//W3C//DTD SVG 1.1//EN" "http://www.w3.org/Graphics/SVG/1.1/DTD/svg11.dtd"><svg t="1632879358300" class="icon" viewBox="0 0 1024 1024" version="1.1" xmlns="http://www.w3.org/2000/svg" p-id="44940" xmlns:xlink="http://www.w3.org/1999/xlink" width="200" height="200"><defs><style type="text/css"></style></defs><path d="M824.32 56.832h-20.48v289.28c-1.024 10.752-13.312 15.872-20.992 8.704l-63.488-63.488c-3.584-3.584-10.24-3.584-13.312 0l-63.488 63.488c-7.68 7.68-20.48 2.56-20.48-8.704V56.832H199.68c-54.272 0-97.28 44.032-97.28 97.28v715.776c0 54.272 44.032 97.28 97.28 97.28h624.64c54.272 0 97.28-44.032 97.28-97.28V154.112c0-53.248-43.008-97.28-97.28-97.28z m-286.72 691.2H283.648c-28.16 0-50.688-23.04-50.688-50.688 0-28.16 23.04-50.688 50.688-50.688H537.6c28.16 0 50.688 23.04 50.688 50.688 0 28.16-23.04 50.688-50.688 50.688z m202.752-187.904H283.648c-28.16 0-50.688-23.04-50.688-50.688 0-28.16 23.04-50.688 50.688-50.688h457.216c28.16 0 50.688 23.04 50.688 50.688s-23.04 50.688-51.2 50.688z" p-id="44941"></path></svg>