<?xml version="1.0" standalone="no"?><!DOCTYPE svg PUBLIC "-//W3C//DTD SVG 1.1//EN" "http://www.w3.org/Graphics/SVG/1.1/DTD/svg11.dtd"><svg t="1632879633933" class="icon" viewBox="0 0 1243 1024" version="1.1" xmlns="http://www.w3.org/2000/svg" p-id="62564" xmlns:xlink="http://www.w3.org/1999/xlink" width="242.7734375" height="200"><defs><style type="text/css"></style></defs><path d="M892.27 421.157a20.041 20.041 0 0 1 20.845 19.382v237.788c0 10.532 8.412 19.163 19.018 19.383h237.494a19.017 19.017 0 0 1 8.924 2.12 19.582 19.582 0 0 1 10.532 17.555v0.732A277.065 277.065 0 0 1 908.8 974.702a281.088 281.088 0 0 1-257.829-187.977 274.725 274.725 0 0 1 241.372-365.642z m194.633-396.8a32.914 32.914 0 0 1 32.695 33.206 32.914 32.914 0 0 1-32.695 33.207h-32.622v207.726l-12.142-3.657a348.745 348.745 0 0 0-54.564-11.557 44.617 44.617 0 0 0-52.517 43.374v6.875h-14.043a356.645 356.645 0 0 0-343.552 453.12H446.39l-108.398 110.08a32.183 32.183 0 0 1-31.817 9.143 33.353 33.353 0 0 1-14.336-55.954l62.025-63.269h-149.65a65.829 65.829 0 0 1-65.829-66.267V90.697h-32.621a32.914 32.914 0 0 1-32.622-33.134 32.914 32.914 0 0 1 32.622-33.206z m-70.217 351.963a261.266 261.266 0 0 1 226.011 222.793v4.828a31.159 31.159 0 0 1-32.841 29.257h-208.457a20.407 20.407 0 0 1-20.48-20.115V406.09a29.77 29.77 0 0 1 6.436-18.505 30.208 30.208 0 0 1 29.258-11.264zM843.337 125.806a38.693 38.693 0 0 0-37.156 9.874L625.883 277.797 504.686 158.062a38.912 38.912 0 0 0-54.492 0L251.758 354.085a38.18 38.18 0 0 0-10.533 37.302 38.766 38.766 0 0 0 28.526 27.283 38.766 38.766 0 0 0 37.23-10.387L477.403 239.25l121.125 119.808a38.766 38.766 0 0 0 54.491 0L860.6 189.806a37.888 37.888 0 0 0-17.262-64z" fill="#8a8a8a" p-id="62565"></path></svg>