<?xml version="1.0" standalone="no"?><!DOCTYPE svg PUBLIC "-//W3C//DTD SVG 1.1//EN" "http://www.w3.org/Graphics/SVG/1.1/DTD/svg11.dtd"><svg t="1632880157938" class="icon" viewBox="0 0 1024 1024" version="1.1" xmlns="http://www.w3.org/2000/svg" p-id="93117" xmlns:xlink="http://www.w3.org/1999/xlink" width="200" height="200"><defs><style type="text/css"></style></defs><path d="M950.272 803.498667A101.717333 101.717333 0 0 1 989.866667 661.504l-55.978667-93.525333a103.082667 103.082667 0 0 1-53.930667 14.336A105.813333 105.813333 0 0 1 772.778667 477.866667H661.504a105.130667 105.130667 0 0 1-12.970667 52.565333 110.592 110.592 0 0 1-147.456 37.546667L443.733333 660.821333a106.496 106.496 0 0 1 39.594667 38.229334A101.717333 101.717333 0 0 1 443.733333 841.045333l55.978667 92.842667a108.544 108.544 0 0 1 53.248-13.653333A105.813333 105.813333 0 0 1 660.821333 1024h111.274667a102.4 102.4 0 0 1 14.336-51.882667 110.592 110.592 0 0 1 147.456-37.546666l55.978667-93.525334a97.621333 97.621333 0 0 1-39.594667-37.546666zM716.8 832.853333a81.92 81.92 0 1 1 81.92-81.92 81.92 81.92 0 0 1-81.92 81.92z" p-id="93118"></path><path d="M425.301333 686.08a136.533333 136.533333 0 0 0-49.834666-47.786667l68.266666-116.053333A136.533333 136.533333 0 0 0 629.418667 477.866667 127.658667 127.658667 0 0 0 648.533333 409.6h136.533334a129.024 129.024 0 0 0 68.266666 112.64V68.266667a68.266667 68.266667 0 0 0-68.266666-68.266667H102.4a68.266667 68.266667 0 0 0-68.266667 68.266667v819.2a68.266667 68.266667 0 0 0 68.266667 68.266666h328.362667L375.466667 863.573333a127.658667 127.658667 0 0 0 49.834666-177.493333zM204.8 136.533333h477.866667a34.133333 34.133333 0 0 1 0 68.266667h-477.866667a34.133333 34.133333 0 0 1 0-68.266667z m68.266667 477.866667h-68.266667a34.133333 34.133333 0 0 1 0-68.266667h68.266667a34.133333 34.133333 0 0 1 0 68.266667z m68.266666-204.8h-136.533333a34.133333 34.133333 0 0 1 0-68.266667h136.533333a34.133333 34.133333 0 0 1 0 68.266667z" p-id="93119"></path></svg>