<?xml version="1.0" standalone="no"?><!DOCTYPE svg PUBLIC "-//W3C//DTD SVG 1.1//EN" "http://www.w3.org/Graphics/SVG/1.1/DTD/svg11.dtd"><svg t="1632884660584" class="icon" viewBox="0 0 1024 1024" version="1.1" xmlns="http://www.w3.org/2000/svg" p-id="131598" xmlns:xlink="http://www.w3.org/1999/xlink" width="200" height="200"><defs><style type="text/css"></style></defs><path d="M288.426667 861.866667h-59.733334V587.093333c0-155.306667 126.293333-281.6 281.6-281.6s281.6 126.293333 281.6 281.6v274.773334h-64.853333m-194.56-443.733334L392.533333 648.533333h110.933334l-27.306667 172.373334 139.946667-228.693334h-110.933334l27.306667-174.08zM745.813333 167.253333c13.653333 6.826667 17.066667 23.893333 10.24 37.546667l-49.493333 87.04-47.786667-27.306667 49.493334-87.04c8.533333-13.653333 23.893333-18.773333 37.546666-10.24zM512 102.4c17.066667 0 29.013333 11.946667 29.013333 27.306667v98.986666h-59.733333V129.706667C482.986667 114.346667 494.933333 102.4 512 102.4zM278.186667 167.253333c13.653333-6.826667 29.013333-3.413333 37.546666 10.24l49.493334 87.04-47.786667 27.306667-49.493333-87.04c-6.826667-13.653333-3.413333-30.72 10.24-37.546667zM105.813333 339.626667c6.826667-13.653333 23.893333-17.066667 37.546667-10.24l87.04 49.493333-27.306667 47.786667-87.04-51.2c-11.946667-6.826667-17.066667-23.893333-10.24-35.84z m812.373334 0c6.826667 13.653333 3.413333 30.72-10.24 37.546666L820.906667 426.666667l-27.306667-47.786667 87.04-49.493333c11.946667-8.533333 29.013333-3.413333 37.546667 10.24-1.706667 0 0 0 0 0z m-785.066667 522.24h757.76c17.066667 0 29.013333 13.653333 29.013333 29.013333s-11.946667 30.72-29.013333 30.72H133.12c-17.066667 0-29.013333-13.653333-29.013333-29.013333-1.706667-17.066667 11.946667-30.72 29.013333-30.72z" p-id="131599"></path></svg>