<?xml version="1.0" standalone="no"?><!DOCTYPE svg PUBLIC "-//W3C//DTD SVG 1.1//EN" "http://www.w3.org/Graphics/SVG/1.1/DTD/svg11.dtd"><svg t="1632879901778" class="icon" viewBox="0 0 1024 1024" version="1.1" xmlns="http://www.w3.org/2000/svg" p-id="71603" xmlns:xlink="http://www.w3.org/1999/xlink" width="200" height="200"><defs><style type="text/css"></style></defs><path d="M415.573333 0v492.600889c0 19.740444 16.042667 35.783111 35.84 35.783111h8.419556c17.521778 0 34.304-6.940444 46.648889-19.342222l83.911111-83.797334a32.995556 32.995556 0 0 1 46.648889 0l84.138666 83.911112c12.401778 12.288 29.127111 19.228444 46.648889 19.228444h8.305778a35.669333 35.669333 0 0 0 35.726222-35.669333V0h66.048c36.465778 0 66.048 29.582222 66.048 66.048v891.619556c0 36.522667-29.582222 66.048-66.048 66.048H151.381333c-36.465778 0-66.048-29.582222-66.048-65.991112V65.991111C85.333333 29.582222 114.915556 0 151.381333 0h264.192z m66.048 0h264.192v440.661333l-85.390222-85.447111a66.048 66.048 0 0 0-93.411555 0L481.621333 440.661333V0z" p-id="71604"></path></svg>