<?xml version="1.0" standalone="no"?><!DOCTYPE svg PUBLIC "-//W3C//DTD SVG 1.1//EN" "http://www.w3.org/Graphics/SVG/1.1/DTD/svg11.dtd"><svg t="1632878995934" class="icon" viewBox="0 0 1024 1024" version="1.1" xmlns="http://www.w3.org/2000/svg" p-id="35697" xmlns:xlink="http://www.w3.org/1999/xlink" width="200" height="200"><defs><style type="text/css"></style></defs><path d="M395.3 635c0.2-63.1 23.5-120.9 62.3-165.9-4.7 0-9.3 0.1-14.1 0.1-177.5 0-277.5-35.1-328-83.5C103.7 397 98 409 98 421.4v95.4c0 60.7 108.9 110.7 297.3 118.2z m37-232.3c211 0 358.2-52.5 358.2-117.2v-70.3C790.4 150.5 643.3 98 432.3 98S98 150.5 98 215.2v70.3c0 64.7 123.3 117.2 334.3 117.2zM402.7 706c-151.8-5.3-240.4-38.2-287-82.1-11.9 11.3-17.7 23.2-17.7 35.6v94.8c0 65.4 129.1 118.4 350.1 118.4 22.1 0 43.7-0.7 64.8-1.7-56.8-38.7-97.2-97.2-110.2-165z m512.6 146.7s-51.6-47.4-89.4-82.8c5-6.1 9.7-12.4 14-19-0.1-0.1-0.2-0.1-0.3-0.2 21.2-32.5 33.6-71.3 33.6-113.1 0-114.7-92.9-207.7-207.7-207.7-114.6 0-207.7 93-207.7 207.7 0 114.8 93 207.7 207.7 207.7 30.7 0 59.8-6.7 85.9-18.7 43.7 38 101.3 88.6 101.3 88.6 8.6 8.7 19.9 13 31.3 13 11.3 0 22.6-4.3 31.3-13 17.2-17.2 17.2-45.2 0-62.5z m-249.8-62.6c-84.1 0-152.5-68.5-152.5-152.6 0-84 68.4-152.5 152.5-152.5S818 553.5 818 637.5c0 84.2-68.4 152.6-152.5 152.6zM651.7 679L624 623.7l-55.4 27.7c23 8.5 55.1 47.6 83.1 83 19.7-37.1 81.2-104 110.8-110.7-12.4-42.6-1.6-57.7 0-83C695.1 576.1 651.7 679 651.7 679z" p-id="35698"></path></svg>