<?xml version="1.0" standalone="no"?><!DOCTYPE svg PUBLIC "-//W3C//DTD SVG 1.1//EN" "http://www.w3.org/Graphics/SVG/1.1/DTD/svg11.dtd"><svg t="1632880477509" class="icon" viewBox="0 0 1024 1024" version="1.1" xmlns="http://www.w3.org/2000/svg" p-id="112597" xmlns:xlink="http://www.w3.org/1999/xlink" width="200" height="200"><defs><style type="text/css"></style></defs><path d="M546.816 802.816c0-74.3424 39.6288-139.3664 98.816-175.3088-9.5232-13.312-17.2032-27.8528-22.6304-43.3152-7.2704-1.1264-14.5408-2.1504-22.2208-3.2768 4.1984-16.4864 11.776-31.9488 22.2208-45.2608 1.2288-18.3296 4.1984-36.4544 8.9088-54.1696 7.7824-7.3728 16.1792-14.1312 24.9856-20.1728 6.144-10.24 10.0352-21.504 11.6736-33.3824 5.2224-20.8896 4.4032-42.8032-2.4576-63.1808-4.9152-7.4752-8.2944-15.872-9.728-24.7808-1.6384-15.7696 4.8128-67.1744 4.8128-78.336 1.536-19.968-0.7168-40.1408-6.8608-59.2896-3.8912-12.8-11.264-24.1664-21.4016-32.8704l-25.8048-4.608-15.7696-15.1552c-64.512-40.5504-133.5296-12.1856-170.7008 3.2768-53.248 17.7152-86.7328 71.168-63.3856 185.2416-0.7168 13.4144-3.7888 26.624-9.3184 38.8096 2.048 23.2448 2.4576 79.1552 23.7568 92.9792 5.5296 2.2528 11.3664 3.584 17.3056 3.9936l6.0416 67.8912c9.216 11.5712 16.6912 24.3712 22.2208 37.9904l-16.5888 3.9936c-7.7824 21.4016-19.5584 41.1648-34.7136 58.2656l-35.1232 9.728c-40.3456 16.9984-85.504 37.4784-126.2592 54.9888-37.0688 15.9744-81.5104 21.7088-94.8224 61.5424 0 27.0336-2.4576 90.8288-1.6384 126.1568H568.32c-13.6192-27.3408-21.504-58.5728-21.504-91.7504z" p-id="112598"></path><path d="M750.8992 638.976c-90.5216 0-163.84 73.3184-163.84 163.84s73.3184 163.84 163.84 163.84 163.84-73.3184 163.84-163.84-73.3184-163.84-163.84-163.84z m0.1024 249.1392c-7.5776 0-13.7216-6.144-13.7216-13.6192 0-7.4752 6.144-13.6192 13.7216-13.6192s13.7216 6.144 13.7216 13.6192-6.144 13.6192-13.7216 13.6192z m44.032-38.0928c-4.9152 5.0176-12.8 5.0176-17.7152 0-7.0656-7.2704-16.4864-11.6736-26.4192-11.6736-10.0352 0-19.3536 4.4032-26.4192 11.6736-2.4576 2.4576-5.632 3.7888-8.8064 3.7888-3.1744 0-6.4512-1.2288-8.8064-3.7888-4.9152-5.0176-4.9152-13.2096 0-18.2272 11.776-12.0832 27.4432-18.8416 44.1344-18.8416s32.3584 6.656 44.1344 18.8416c4.8128 5.0176 4.8128 13.2096-0.1024 18.2272z m33.792-34.0992c-5.2224 5.12-13.6192 5.12-18.8416 0-15.7696-15.6672-36.7616-25.1904-59.0848-25.1904-22.3232 0-43.3152 9.5232-59.1872 25.1904-2.56 2.56-6.0416 3.8912-9.4208 3.8912s-6.8608-1.3312-9.4208-3.8912c-2.3552-2.3552-3.8912-5.7344-3.8912-9.3184 0-3.6864 1.536-6.9632 3.8912-9.3184 20.7872-20.6848 48.5376-32.0512 77.9264-32.0512 29.3888 0 57.1392 11.3664 77.9264 32.0512 2.4576 2.3552 3.8912 5.7344 3.8912 9.3184 0.1024 3.6864-1.4336 6.9632-3.7888 9.3184z m27.648-40.6528c-5.0176 4.7104-13.0048 4.7104-18.0224 0-23.3472-21.9136-54.4768-32.6656-87.4496-32.6656-33.0752 0-64.1024 10.752-87.4496 32.6656-2.4576 2.3552-5.7344 3.4816-9.0112 3.4816-3.2768 0-6.5536-1.1264-9.0112-3.4816-5.0176-4.7104-5.0176-12.1856 0-16.896 28.16-26.4192 65.6384-40.96 105.472-40.96 39.8336 0 77.312 14.5408 105.472 40.96 4.9152 4.7104 4.9152 12.288 0 16.896z" p-id="112599"></path></svg>